<mxfile host="65bd71144e" scale="3" border="0">
    <diagram id="ekGiFcBTvnGOQzT72nSj" name="Page-1">
        <mxGraphModel dx="1712" dy="698" grid="1" gridSize="10" guides="1" tooltips="1" connect="1" arrows="1" fold="1" page="1" pageScale="1" pageWidth="850" pageHeight="1100" background="#F4F1DE" math="0" shadow="0">
            <root>
                <mxCell id="0"/>
                <mxCell id="1" parent="0"/>
                <mxCell id="30" value="" style="rounded=0;whiteSpace=wrap;html=1;sketch=0;fontColor=#393C56;strokeColor=#E07A5F;fillColor=#F2CC8F;opacity=20;" vertex="1" parent="1">
                    <mxGeometry x="-60" y="190" width="860" height="420" as="geometry"/>
                </mxCell>
                <mxCell id="3" style="edgeStyle=orthogonalEdgeStyle;curved=0;rounded=1;sketch=0;orthogonalLoop=1;jettySize=auto;html=1;exitX=1;exitY=0.5;exitDx=0;exitDy=0;fontColor=#393C56;strokeColor=#E07A5F;fillColor=#F2CC8F;labelBackgroundColor=#F4F1DE;" edge="1" parent="1" source="2">
                    <mxGeometry relative="1" as="geometry">
                        <mxPoint x="320" y="300" as="targetPoint"/>
                    </mxGeometry>
                </mxCell>
                <mxCell id="4" value="&lt;b&gt;&lt;font style=&quot;background-color: rgb(0 , 0 , 0) ; font-size: 15px&quot; color=&quot;#ffffff&quot;&gt;Reward Transaction&lt;/font&gt;&lt;/b&gt;" style="edgeLabel;html=1;align=center;verticalAlign=middle;resizable=0;points=[];fontColor=#393C56;labelBackgroundColor=#F4F1DE;" vertex="1" connectable="0" parent="3">
                    <mxGeometry x="-0.0891" relative="1" as="geometry">
                        <mxPoint x="4" y="-20" as="offset"/>
                    </mxGeometry>
                </mxCell>
                <mxCell id="2" value="&lt;b&gt;&lt;font style=&quot;font-size: 15px&quot;&gt;Bramble Rewards API&lt;/font&gt;&lt;/b&gt;" style="rounded=0;whiteSpace=wrap;html=1;sketch=0;fontColor=#393C56;strokeColor=#E07A5F;fillColor=#F2CC8F;" vertex="1" parent="1">
                    <mxGeometry x="-10" y="270" width="120" height="60" as="geometry"/>
                </mxCell>
                <mxCell id="8" style="edgeStyle=orthogonalEdgeStyle;curved=0;rounded=1;sketch=0;orthogonalLoop=1;jettySize=auto;html=1;exitX=1;exitY=0.5;exitDx=0;exitDy=0;entryX=0;entryY=0.5;entryDx=0;entryDy=0;fontColor=#393C56;fillColor=#F2CC8F;strokeColor=#000000;strokeWidth=3;" edge="1" parent="1" source="6" target="7">
                    <mxGeometry relative="1" as="geometry"/>
                </mxCell>
                <mxCell id="6" value="&lt;b&gt;&lt;font style=&quot;font-size: 15px&quot;&gt;Bramble Chain&lt;/font&gt;&lt;/b&gt;" style="rounded=0;whiteSpace=wrap;html=1;sketch=0;fontColor=#393C56;strokeColor=#E07A5F;fillColor=#F2CC8F;" vertex="1" parent="1">
                    <mxGeometry x="320" y="270" width="120" height="60" as="geometry"/>
                </mxCell>
                <mxCell id="10" style="edgeStyle=orthogonalEdgeStyle;curved=0;rounded=1;sketch=0;orthogonalLoop=1;jettySize=auto;html=1;fontColor=#393C56;fillColor=#F2CC8F;strokeWidth=3;strokeColor=#000000;" edge="1" parent="1" source="7">
                    <mxGeometry relative="1" as="geometry">
                        <mxPoint x="690" y="390.5555470784505" as="targetPoint"/>
                    </mxGeometry>
                </mxCell>
                <mxCell id="7" value="&lt;span style=&quot;font-size: 15px&quot;&gt;&lt;b&gt;NEAR Smart Contract&lt;/b&gt;&lt;/span&gt;" style="rounded=0;whiteSpace=wrap;html=1;sketch=0;fontColor=#393C56;strokeColor=#E07A5F;fillColor=#F2CC8F;" vertex="1" parent="1">
                    <mxGeometry x="630" y="270" width="120" height="60" as="geometry"/>
                </mxCell>
                <mxCell id="9" value="&lt;b&gt;&lt;font style=&quot;background-color: rgb(0 , 0 , 0) ; font-size: 15px&quot; color=&quot;#ffffff&quot;&gt;Valid Transactions&lt;/font&gt;&lt;/b&gt;" style="edgeLabel;html=1;align=center;verticalAlign=middle;resizable=0;points=[];fontColor=#393C56;labelBackgroundColor=#F4F1DE;" vertex="1" connectable="0" parent="1">
                    <mxGeometry x="529.998275862069" y="280" as="geometry"/>
                </mxCell>
                <mxCell id="11" value="&lt;b&gt;&lt;font style=&quot;font-size: 13px&quot;&gt;Stored in the NEAR Protocol, unique hash / lookup key of the bulk of transactions stored is sent back&lt;/font&gt;&lt;/b&gt;" style="rounded=0;whiteSpace=wrap;html=1;sketch=0;fontColor=#393C56;strokeColor=#E07A5F;fillColor=#F2CC8F;" vertex="1" parent="1">
                    <mxGeometry x="610" y="390" width="160" height="90" as="geometry"/>
                </mxCell>
                <mxCell id="21" value="s" style="curved=1;endArrow=classic;html=1;fontColor=#393C56;strokeColor=#000000;strokeWidth=3;fillColor=#F2CC8F;" edge="1" parent="1">
                    <mxGeometry x="-0.1574" width="50" height="50" relative="1" as="geometry">
                        <mxPoint x="690" y="481" as="sourcePoint"/>
                        <mxPoint x="370" y="500" as="targetPoint"/>
                        <Array as="points">
                            <mxPoint x="710" y="560"/>
                            <mxPoint x="580" y="570"/>
                            <mxPoint x="370" y="570"/>
                        </Array>
                        <mxPoint as="offset"/>
                    </mxGeometry>
                </mxCell>
                <mxCell id="27" style="edgeStyle=orthogonalEdgeStyle;curved=0;rounded=1;sketch=0;orthogonalLoop=1;jettySize=auto;html=1;exitX=0.5;exitY=0;exitDx=0;exitDy=0;entryX=0.5;entryY=1;entryDx=0;entryDy=0;fontColor=#393C56;strokeColor=#000000;strokeWidth=3;fillColor=#F2CC8F;" edge="1" parent="1" source="22" target="6">
                    <mxGeometry relative="1" as="geometry"/>
                </mxCell>
                <mxCell id="22" value="&lt;span style=&quot;font-size: 13px&quot;&gt;&lt;b&gt;Message of saved block is sent to the Bramble Chain and it deletes the transactions from its own temprorary pool&lt;/b&gt;&lt;/span&gt;" style="rounded=0;whiteSpace=wrap;html=1;sketch=0;fontColor=#393C56;strokeColor=#E07A5F;fillColor=#F2CC8F;" vertex="1" parent="1">
                    <mxGeometry x="310" y="400" width="140" height="100" as="geometry"/>
                </mxCell>
            </root>
        </mxGraphModel>
    </diagram>
</mxfile>